<svg id="Group_3" data-name="Group 3" xmlns="http://www.w3.org/2000/svg" width="18.476" height="18.476" viewBox="0 0 18.476 18.476">
  <path id="image-outline" d="M20.923,20.923H6.553V6.553h14.37m0-2.053H6.553A2.053,2.053,0,0,0,4.5,6.553v14.37a2.053,2.053,0,0,0,2.053,2.053h14.37a2.053,2.053,0,0,0,2.053-2.053V6.553A2.053,2.053,0,0,0,20.923,4.5M15.75,14.036l-2.823,3.634-2.012-2.422L8.093,18.87H19.383L15.75,14.036Z" transform="translate(-4.5 -4.5)"/>
  <path id="Path_5" data-name="Path 5" d="M3.114,1.557A1.557,1.557,0,1,1,1.557,0,1.557,1.557,0,0,1,3.114,1.557Z" transform="translate(3.421 3.554)"/>
</svg>
