<svg id="bx-image" xmlns="http://www.w3.org/2000/svg" width="20.529" height="16.423" viewBox="0 0 20.529 16.423">
  <path id="Path_2" data-name="Path 2" d="M12.077,13.54A1.54,1.54,0,1,1,10.538,12,1.54,1.54,0,0,1,12.077,13.54Z" transform="translate(-4.892 -7.894)"/>
  <path id="Path_3" data-name="Path 3" d="M13.617,19.106l-1.54-2.053L9,21.159H21.315L16.7,15Z" transform="translate(-4.892 -8.841)"/>
  <path id="Path_4" data-name="Path 4" d="M21.474,6H5.051A2.055,2.055,0,0,0,3,8.053V20.37a2.055,2.055,0,0,0,2.053,2.053H21.474a2.055,2.055,0,0,0,2.053-2.053V8.053A2.055,2.055,0,0,0,21.474,6ZM5.051,20.37V8.053H21.474l0,12.317H5.051Z" transform="translate(-2.998 -6)"/>
</svg>
