<svg xmlns="http://www.w3.org/2000/svg" width="84" height="63" viewBox="0 0 84 63">
  <path id="image" d="M76.125,4.5H7.875A7.875,7.875,0,0,0,0,12.375v47.25A7.875,7.875,0,0,0,7.875,67.5h68.25A7.875,7.875,0,0,0,84,59.625V12.375A7.875,7.875,0,0,0,76.125,4.5ZM75.14,59.625H8.86a.985.985,0,0,1-.985-.985V13.36a.985.985,0,0,1,.985-.985H75.14a.985.985,0,0,1,.985.985V58.64A.985.985,0,0,1,75.14,59.625ZM21,18.939A6.564,6.564,0,1,0,27.564,25.5,6.564,6.564,0,0,0,21,18.939ZM15.75,51.75h52.5V38.625L53.893,24.268a1.97,1.97,0,0,0-2.784,0L31.5,43.875l-6.482-6.482a1.97,1.97,0,0,0-2.784,0L15.75,43.875Z" transform="translate(0 -4.5)" fill="#edeaff"/>
</svg>
