<svg xmlns="http://www.w3.org/2000/svg" width="16.423" height="20.529" viewBox="0 0 16.423 20.529">
  <g id="bx-image" transform="translate(0 20.529) rotate(-90)">
    <path id="Path_2" data-name="Path 2" d="M3.114,1.557A1.557,1.557,0,1,1,1.557,0,1.557,1.557,0,0,1,3.114,1.557Z" transform="translate(16.975 3.421) rotate(90)"/>
    <path id="Path_3" data-name="Path 3" d="M3.775,3.355,2.516,1.678,0,5.033H10.066L6.291,0Z" transform="translate(9.139 3.421) rotate(90)"/>
    <path id="Path_4" data-name="Path 4" d="M18.476,0H2.053A2.055,2.055,0,0,0,0,2.053V14.37a2.055,2.055,0,0,0,2.053,2.053H18.476a2.055,2.055,0,0,0,2.053-2.053V2.053A2.055,2.055,0,0,0,18.476,0ZM2.053,14.37V2.053H18.476l0,12.317H2.053Z" transform="translate(0 0)"/>
  </g>
</svg>
